<svg xmlns="http://www.w3.org/2000/svg" fill="none" viewBox="0 0 250 250" height="250" width="250">
<path fill="#006341" d="M125 50C83.6283 50 50 83.5976 50 124.932C50 166.265 83.6283 199.863 125 199.863C129.204 199.863 133.407 199.421 137.611 198.758V84.7028H120.354C114.602 100.175 99.7788 99.9543 99.7788 99.9543V115.648H113.053V175.991C89.823 170.686 72.3451 149.688 72.3451 124.932C72.3451 95.9757 95.7965 72.5458 124.779 72.5458C153.761 72.5458 177.212 95.9757 177.212 124.932C177.212 146.814 163.938 165.381 144.911 173.339V196.99C176.77 188.369 200 159.413 200 124.932C200 83.5976 166.372 50 125 50Z"></path>
</svg>
